<svg width="24" height="27" viewBox="0 0 24 27" fill="none" xmlns="http://www.w3.org/2000/svg">
<path d="M9.60341 0.000108119C9.44468 -0.00200232 9.28711 0.0268025 9.13983 0.0848498C8.99256 0.142897 8.85853 0.22903 8.74552 0.338247C8.63251 0.447464 8.54277 0.577588 8.48153 0.721062C8.42028 0.864536 8.38874 1.0185 8.38874 1.17402H1.21536C1.05657 1.17182 0.898921 1.20056 0.751569 1.25856C0.604217 1.31657 0.470103 1.40269 0.35702 1.51191C0.243938 1.62114 0.154142 1.75129 0.0928521 1.89481C0.0315622 2.03833 0 2.19235 0 2.34792C0 2.5035 0.0315622 2.65752 0.0928521 2.80104C0.154142 2.94456 0.243938 3.07471 0.35702 3.18394C0.470103 3.29316 0.604217 3.37928 0.751569 3.43729C0.898921 3.49529 1.05657 3.52403 1.21536 3.52183H22.7846C22.9434 3.52403 23.1011 3.49529 23.2484 3.43729C23.3958 3.37928 23.5299 3.29316 23.643 3.18394C23.7561 3.07471 23.8459 2.94456 23.9071 2.80104C23.9684 2.65752 24 2.5035 24 2.34792C24 2.19235 23.9684 2.03833 23.9071 1.89481C23.8459 1.75129 23.7561 1.62114 23.643 1.51191C23.5299 1.40269 23.3958 1.31657 23.2484 1.25856C23.1011 1.20056 22.9434 1.17182 22.7846 1.17402H15.6113C15.6113 1.0185 15.5797 0.864536 15.5185 0.721062C15.4572 0.577588 15.3675 0.447464 15.2545 0.338247C15.1415 0.22903 15.0074 0.142897 14.8602 0.0848498C14.7129 0.0268025 14.5553 -0.00200232 14.3966 0.000108119H9.60341ZM1.21536 5.86965V24.6522C1.21536 25.9494 2.28783 27 3.61195 27H20.3881C21.7122 27 22.7846 25.9494 22.7846 24.6522V5.86965H1.21536Z" fill="white"/>
</svg>
