<svg width="27" height="27" viewBox="0 0 27 27" fill="none" xmlns="http://www.w3.org/2000/svg">
<path d="M3.68207 0.000345246C3.36805 0.000345246 3.05368 0.119963 2.81437 0.359889L0.359889 2.81437C-0.119963 3.29422 -0.119963 4.07114 0.359889 4.54977L9.31012 13.5L0.359889 22.4502C-0.119963 22.9301 -0.119963 23.707 0.359889 24.1856L2.81437 26.6401C3.29422 27.12 4.07114 27.12 4.54977 26.6401L13.5 17.6899L22.4502 26.6401C22.9289 27.12 23.707 27.12 24.1856 26.6401L26.6401 24.1856C27.12 23.7058 27.12 22.9289 26.6401 22.4502L17.6899 13.5L26.6401 4.54977C27.12 4.07114 27.12 3.293 26.6401 2.81437L24.1856 0.359889C23.7058 -0.119963 22.9289 -0.119963 22.4502 0.359889L13.5 9.31012L4.54977 0.359889C4.30984 0.119963 3.99609 0.000345246 3.68207 0.000345246Z" fill="white"/>
</svg>
